# xmcd
#
# Track frame offsets: 
#        150
#        16941
#        29226
#        40809
#        51645
#        68975
#        87571
#        102598
#        117673
#        131340
#        140053
#        158659
#        177499
#        190739
#        209436
#        227294
#
# Disc length: 3265 seconds
#
# Revision: 0
# Processed by: cddbd v1.5.2PL0 Copyright (c) Steve Scherf et al.
# Submitted via: ExactAudioCopy v0.99pb4
#
DISCID=ef0cbf10
DTITLE=Various Artist - Sin City
DYEAR=2007
DGENRE=Americana
TTITLE0=Emmylou Harris - Ooh Las Vegas
TTITLE1=Jesse Dayton and Brennen Leigh - Let's Run Away
TTITLE2=Dwight Yoakam - Above And Beyond
TTITLE3=Sarah Borges and The Broken Singles - The Day We Met
TTITLE4=Jason Isbell - Brand New Kind Of Actress
TTITLE5=Ryan Bingham - Bread And Water
TTITLE6=Collin Herring - Punches
TTITLE7=Knuckle Yummy - This Box
TTITLE8=The Hackenshaw Boys - Oh, Girl
TTITLE9=Kate Maki - Lose My Mind
TTITLE10=Terri Hendrix - Jim Thorpe's Blues
TTITLE11=Tom Freund - Why Wyoming
TTITLE12=Brandi Shearer - That's How You'll Know
TTITLE13=The Be Good Tanyas - Human Thing
TTITLE14=Gill Landry - Lawless Soirez
TTITLE15=Mike Farris - Sit Down Servant
EXTD=
EXTT0=
EXTT1=
EXTT2=
EXTT3=
EXTT4=
EXTT5=
EXTT6=
EXTT7=
EXTT8=
EXTT9=
EXTT10=
EXTT11=
EXTT12=
EXTT13=
EXTT14=
EXTT15=
PLAYORDER=
